<?xml version="1.0" encoding="utf-8"?>
<svg version="1.1" xmlns="http://www.w3.org/2000/svg" xmlns:xlink="http://www.w3.org/1999/xlink" x="0px" y="0px"
	  width="1958" height="576" viewBox="0 0 1958 576" style="enable-background:new 0 0 1958 576;" xml:space="preserve"
    data-tags="ruckus logo" aria-labelledby="title desc" role="img">
  <title id="title">the Ruckus logo</title>
  <desc id="desc">a stylized barking dog (showing lines for the bark) wearing a leash, standing next to the word "ruckus". trademarked.</desc>
  <style type="text/css">
  	.ko{fill:#FFFFFF;}
  	.brand{fill:#EA7200;}
  </style>
  <g id="dog">
  	<path class="ko" d="M314.8,247.4c0,0-2.9-16.6,4.5-23.6c7.4-7.1,19.6,0.6,19.6,0.6l35.2,20.5c11.2,6.9,23,12.9,35.2,17.8
  		c6.7,1.2,13.4-2.4,16.1-8.6c2.2-5.2-2.1-10.9-3.2-12.8s-8.1-10.2-8.1-10.2l-31.5-32.8c0,0-16.4-15-17-23.9
  		c0-6.1,21.8-19.5,21.8-19.5s22.3-11.4,44.5-23.9s8.3-29.5,1.5-30.7c-12.1,0.6-24.1,2.2-35.9,4.9c-17.6,3.5-35.3,6-53.2,7.4
  		c-12.5,1.6-24.7-4.5-30.9-15.3c0,0-11.2-19.1-15.9-28.7c-4.6-9.6-7.3-10.2-14.4-6.9c-7.1,3.4,3.9,24,3.9,24s5.9,13.1,8.7,18.9
  		s3.7,10.2-1.9,13.5s-9.6-7.6-9.6-7.6L268.4,81c0,0-5.2-8.1-7-10.2c-9-11.4-30.9,13.2-30.9,17.3c0,13.3,16.9,0,21.3,9.1
  		c2.5,5.2,8.2,17.8,10.3,21.2s11.2,27.7-6.1,34.8c-57.1,24.8-118.7,38-181,38.7c-16,0.4-32-0.9-47.7-3.8c0,0-30.9-9-12.9,17.4
  		c7.2,8.7,13,18.4,17.2,28.7c5.1,21,4.5,42.9-1.8,63.6c-4.6,8.9-10.5,17-17.6,24.1c0,0,7,158.8,4,177.2c-1.9,11.8-1.1,23.8,2.3,35.3
  		c2.2,10.6,9,19.7,18.6,24.9c13.2,8.3,13.7-2.3,13.7-9.1C49,541.6,44.5,533.9,38,528c-3.2-4.3-4.4-9.7-3.4-14.9l15.4-173.9
  		c0,0,4.2-17.5,15.2-3.9c4.9,7.2,3.9,16.9-2.3,23c0,0,6.9,127.3,6.9,144.5c-0.8,12.8-0.8,25.7,0,38.5c4.5,9.9,13.2,17.4,23.7,20.5
  		c12.1,4,10.3-5.7,10.3-5.7s-2-15.7-11.1-19.6c-6-2.6-5.2-31.2-5.2-31.2l3.3-101.2c0,0-2.9-79.9,33.9-90.1
  		c30.9-8.3,92.1,5.1,92.1,5.1s43.7,6.5,52.8,40.9c10.3,37.9,23.4,154.3,23.4,154.3s11.8,58.8,48.9,47.8l2.5-0.9c0,0,10.3-4-6.3-14.6
  		s-20.6-10.2-27.9-46.2c-7.3-36-10.3-139.7-11.3-148s-2-23.3-2-23.3s2.2-9.6,7.8-2.5s14.5,48.1,14.5,48.1s14.7,87.3,17.2,99.1
  		c1.6,7.9,5.7,42,27.3,58.5c16.7,12.7,41.2,3.8,41.2,3.8s6.9-13.6-12.3-15.6c-16-0.3-29.6-11.6-32.8-27.2
  		C353.2,474,314.8,247.4,314.8,247.4z"/>
  	<g id="leash">
  		<path class="brand" d="M403.7,502.1c-3.6-6.6-29.2-56-27.7-97.2c0.3-6.9,1.1-13.7,2.3-20.5c6.2-37,3-43.5-33.2-110.6l6.3-11.3
  			c36.3,67.1,39.5,73.6,33.2,110.6c-1.2,6.8-2,13.6-2.4,20.5c-1.5,41.7,24.8,92.1,27.8,97.4c22.5,40.9,61.8,72.7,95,72.7
  			c12.5,0.8,24.5-4.8,31.9-14.7c-4.7,16.5-20.2,27.6-37.4,26.9c-33.1,0-73.4-31.4-95.7-73.4L403.7,502.1z"/>
  		<path class="brand" d="M440.5,521.3c20.6-10.1,44.2-12.3,66.3-5.9c26.7,6.8,37.7,22.1,28.7,36.9c4.7-11.2-9.7-23.8-36.6-30.7
  			C480,515.4,459.5,515.2,440.5,521.3z"/>
  		<path class="brand" d="M340.9,256.2c0,0-84.5-62.9-95.1-98.1c-1.9-6.1-27.8,7.4-27.8,7.4s62.7,65.3,109.3,93.2
  			C338.1,265.1,340.9,256.2,340.9,256.2z"/>
  		<path class="ko" d="M339.3,277c-8,0-14.5-6.5-14.5-14.4c0-8,6.5-14.4,14.5-14.4s14.5,6.5,14.5,14.4l0,0
  			C353.9,270.6,347.4,277,339.3,277z M339.3,253.1c-5.3,0-9.6,4.3-9.6,9.5s4.3,9.5,9.6,9.5s9.6-4.3,9.6-9.5S344.6,253.1,339.3,253.1
  			L339.3,253.1z"/>
  	</g>
  	<g id="bark">
  		<path class="brand" d="M516.3,0l15.5,6.3l-8.1,18.1l-44.7,76.9l0,0L508.1,18L516.3,0z"/>
  		<path class="brand" d="M564.2,28.4l12.6,10.9L563.2,54l-66.8,58.7l0,0l54.6-69.7L564.2,28.4z"/>
  		<path class="brand" d="M603,71l8.3,14.4l-17.5,9.5l-82.4,33.9l0,0l74.4-48.3L603,71z"/>
  	</g>
  </g>
  <g id="ruckus">
  	<path class="ko" d="M564.5,250.1h49.4c46.8,0,63,22.5,63,40.9c0,42.3-61.8,42.9-78.3,42.9h-21.8l75.7,84.7l20.6,21h60.3
  		l-82.4-81.8c18.4,0,67.7-9.2,67.7-67.1c-0.1-20.3-9.8-39.4-26.3-51.5c-14.9-10.9-35.7-18.3-75.6-18.3h-93.6v218.7h41.2L564.5,250.1
  		z"/>
  	<path class="ko" d="M806.4,228.5v114.3c0,52.2,23.4,65.9,53,65.9c33,0,55.6-20.5,55.6-67V228.5h39.9v211.1h-36v-22.9h-0.7
  		c-10.3,18.3-35.7,28.2-62.5,28.2c-22,0.7-43.6-6.6-60.6-20.5c-17.6-15.2-28-38.9-28-81.1V228.5H806.4z"/>
  	<path class="ko" d="M1174.3,298.6c-9.8-24.1-33.5-39.8-59.7-39.6c-51.5,0-69.9,42.7-69.9,74.7c0,36.6,23.4,75.1,69,75.1
  		c26.2,0.5,50.1-14.9,60.3-38.9h44.5c-14.6,45.1-57.1,75.5-104.8,75.1c-69.9,0-109-56.8-109-111.2c-1.2-60,46.7-109.6,107.2-110.8
  		c48.5-1,91.9,29.8,106.5,75.8L1174.3,298.6z"/>
  	<rect x="1264.2" y="157.8" class="ko" width="39.9" height="281.8"/>
  	<polygon class="ko" points="1371.4,327.9 1448.5,228.5 1399,228.4 1326.3,331 1410.9,439.6 1460.8,439.6 	"/>
  	<path class="ko" d="M1627.5,341.7c0,46.1-22.7,67-55.6,67c-29.6,0-53-13.7-53-65.9V228.5H1479v114.3c0,42.3,10.3,65.9,28,81.1
  		c17,13.9,38.6,21.2,60.6,20.5c26.9,0,51.5-10.2,62.5-28.2h0.8v23.4h36.5V228.5h-39.9L1627.5,341.7z"/>
  	<path class="ko" d="M1837,283.1c-2.6-15.9-17.1-27.1-33.3-25.7c-18.1,0-30.9,9.6-30.9,23.7c0,18.6,19.3,23.3,40.1,28.6
  		s74.7,18.2,74.7,67.5c0,36.2-30.9,66-82.4,66c-31.7,0-87.1-17.2-87.5-71.6h44.6c0.6,21.9,19,39.1,41,38.5c0.6,0,1.2,0,1.8-0.1
  		c22.6,0,37.5-12.1,37.5-30c0-19.5-20.6-26.6-44.7-33.9c-27.2-8.4-70.2-18.4-70.2-62.3c0-30.7,30.9-59.8,77.8-59.8
  		c33.5,0,75.5,20.5,75.5,59.2L1837,283.1z"/>
  </g>
  <path class="ko" d="M1897.8,169.6h-11.2v31.6h-10.3v-31.6H1865v-7.7h32.8V169.6z M1949.3,201.4H1939v-28l0,0l-10.3,27.8h-6.7
  	l-10.3-27.9l0,0v27.9h-9.3v-39.3h13.1l10.3,26l10.3-26h13L1949.3,201.4z"/>
</svg>
